<svg width="33" height="33" viewBox="0 0 33 33" fill="none" xmlns="http://www.w3.org/2000/svg">
<path fill-rule="evenodd" clip-rule="evenodd" d="M21.8747 11.6673C21.8747 13.2144 21.2601 14.6981 20.1661 15.7921C19.0722 16.8861 17.5884 17.5007 16.0413 17.5007C14.4942 17.5007 13.0105 16.8861 11.9166 15.7921C10.8226 14.6981 10.208 13.2144 10.208 11.6673C10.208 10.1202 10.8226 8.63649 11.9166 7.54253C13.0105 6.44857 14.4942 5.83398 16.0413 5.83398C17.5884 5.83398 19.0722 6.44857 20.1661 7.54253C21.2601 8.63649 21.8747 10.1202 21.8747 11.6673ZM18.958 11.6673C18.958 12.4409 18.6507 13.1827 18.1037 13.7297C17.5568 14.2767 16.8149 14.584 16.0413 14.584C15.2678 14.584 14.5259 14.2767 13.9789 13.7297C13.432 13.1827 13.1247 12.4409 13.1247 11.6673C13.1247 10.8938 13.432 10.1519 13.9789 9.60492C14.5259 9.05794 15.2678 8.75065 16.0413 8.75065C16.8149 8.75065 17.5568 9.05794 18.1037 9.60492C18.6507 10.1519 18.958 10.8938 18.958 11.6673Z" fill="url(#paint0_linear)"/>
<path fill-rule="evenodd" clip-rule="evenodd" d="M16.0417 0C7.18229 0 0 7.18229 0 16.0417C0 24.901 7.18229 32.0833 16.0417 32.0833C24.901 32.0833 32.0833 24.901 32.0833 16.0417C32.0833 7.18229 24.901 0 16.0417 0ZM2.91667 16.0417C2.91667 19.0896 3.95646 21.8954 5.69917 24.1237C6.92304 22.5165 8.50194 21.214 10.3125 20.318C12.1231 19.4219 14.1163 18.9566 16.1365 18.9583C18.1305 18.9564 20.0986 19.4097 21.8909 20.2836C23.6833 21.1576 25.2524 22.4291 26.479 24.0012C27.7425 22.344 28.5933 20.4097 28.9609 18.3584C29.3285 16.307 29.2023 14.1977 28.5928 12.2048C27.9833 10.2119 26.908 8.39278 25.4559 6.89797C24.0038 5.40316 22.2166 4.27563 20.2422 3.60866C18.2678 2.94169 16.163 2.75446 14.1019 3.06246C12.0408 3.37046 10.0826 4.16484 8.38945 5.37987C6.6963 6.5949 5.31681 8.19564 4.36513 10.0497C3.41344 11.9037 2.91693 13.9577 2.91667 16.0417ZM16.0417 29.1667C13.0287 29.1712 10.1066 28.1347 7.77 26.2325C8.71052 24.8861 9.96237 23.7868 11.419 23.0281C12.8757 22.2694 14.4941 21.8738 16.1365 21.875C17.7584 21.8737 19.3572 22.2594 20.8001 23C22.243 23.7406 23.4884 24.8148 24.4329 26.1333C22.0781 28.0973 19.1079 29.171 16.0417 29.1667Z" fill="url(#paint1_linear)"/>
<defs>
<linearGradient id="paint0_linear" x1="7.32565" y1="27.8107" x2="26.5932" y2="26.3437" gradientUnits="userSpaceOnUse">
<stop offset="0.166667" stop-color="#4269CF"/>
<stop offset="1" stop-color="#F93B3B"/>
</linearGradient>
<linearGradient id="paint1_linear" x1="-7.92647" y1="60.436" x2="45.0592" y2="56.4017" gradientUnits="userSpaceOnUse">
<stop offset="0.166667" stop-color="#4269CF"/>
<stop offset="1" stop-color="#F93B3B"/>
</linearGradient>
</defs>
</svg>
